# xmcd CD database file
#
# Track frame offsets:
#	150
#	15440
#	32119
#	46703
#	65207
#	91112
#	104093
#	119442
#	134460
#	154711
#	169190
#	184195
#	203127
#	228847
#
# Disc length: 3328 seconds
#
# Revision: 0
# Processed by: cddbd v1.5.2PL0 Copyright (c) Steve Scherf et al.
# Submitted via: CDex 1.51
#
DISCID=b90cfe0e
DTITLE=The Troubadillos - Live At Angels
DYEAR=2006
DGENRE=Country
TTITLE0=Last Date (feat. Cindy Jon)
TTITLE1=Misery and gin (feat. Freddy Powers)
TTITLE2=Further On Up the Road (feat. Freddy Powers)
TTITLE3=Are You Sure? (feat. Louie Long)
TTITLE4=Pool Hall (feat. John Arthur Martinez)
TTITLE5=King Of Country Dixie Swing (feat. Lauren and Jeff Beller)
TTITLE6=Jambalaya (feat. Magnolia Band)
TTITLE7=Kiss Big Bootie Goodbye (feat. Sonny Throckmorton)
TTITLE8=Cats In the Cradle (feat. B.B. Morse)
TTITLE9=The Part I Like Best (feat. Cindy Jon)
TTITLE10=Girl with the Honky-Tonk Heart (feat. Louie Long)
TTITLE11=River of Love (feat. John Arthur Martinez)
TTITLE12=La Bamba (feat. John Arthur Martinez)
TTITLE13=All I Want To Do (is sing my song) (feat. Freddy Powers) 
EXTD=YEAR: 2006
EXTT0=
EXTT1=
EXTT2=
EXTT3=
EXTT4=
EXTT5=
EXTT6=
EXTT7=
EXTT8=
EXTT9=
EXTT10=
EXTT11=
EXTT12=
EXTT13=
PLAYORDER=
